<mxfile host="app.diagrams.net" modified="2021-11-15T03:55:12.831Z" agent="5.0 (Windows NT 10.0; Win64; x64) AppleWebKit/537.36 (KHTML, like Gecko) Chrome/95.0.4638.69 Safari/537.36" etag="9lniCGHxfH01EpwfjmGg" version="15.7.3" type="github">
  <diagram id="INZySs0cjXDZFRDGY-CA" name="Page-1">
    <mxGraphModel dx="862" dy="482" grid="0" gridSize="10" guides="1" tooltips="1" connect="1" arrows="1" fold="1" page="1" pageScale="1" pageWidth="850" pageHeight="1100" math="0" shadow="0">
      <root>
        <mxCell id="0" />
        <mxCell id="1" parent="0" />
        <mxCell id="ksOG_NAHe54KqmvVW3Z6-2" value="" style="shape=mxgraph.cisco.storage.cloud;sketch=0;html=1;pointerEvents=1;dashed=0;fillColor=none;strokeColor=#3399FF;strokeWidth=2;verticalLabelPosition=bottom;verticalAlign=top;align=center;outlineConnect=0;labelBackgroundColor=#FFFFFF;" vertex="1" parent="1">
          <mxGeometry x="63" y="26" width="186" height="106" as="geometry" />
        </mxCell>
        <mxCell id="ksOG_NAHe54KqmvVW3Z6-3" value="" style="shape=mxgraph.cisco.storage.cloud;sketch=0;html=1;pointerEvents=1;dashed=0;fillColor=none;strokeColor=#3399FF;strokeWidth=2;verticalLabelPosition=bottom;verticalAlign=top;align=center;outlineConnect=0;labelBackgroundColor=#FFFFFF;" vertex="1" parent="1">
          <mxGeometry x="572" y="21" width="186" height="106" as="geometry" />
        </mxCell>
        <mxCell id="ksOG_NAHe54KqmvVW3Z6-4" value="" style="html=1;outlineConnect=0;fillColor=#CCCCCC;strokeColor=#6881B3;gradientColor=none;gradientDirection=north;strokeWidth=2;shape=mxgraph.networks.comm_link_edge;html=1;rounded=0;endArrow=none;endFill=0;startArrow=none;entryX=0.2;entryY=0.87;entryDx=0;entryDy=0;entryPerimeter=0;" edge="1" parent="1" source="ksOG_NAHe54KqmvVW3Z6-1" target="ksOG_NAHe54KqmvVW3Z6-3">
          <mxGeometry width="100" height="100" relative="1" as="geometry">
            <mxPoint x="374" y="300" as="sourcePoint" />
            <mxPoint x="474" y="200" as="targetPoint" />
            <Array as="points">
              <mxPoint x="641" y="268" />
            </Array>
          </mxGeometry>
        </mxCell>
        <mxCell id="ksOG_NAHe54KqmvVW3Z6-1" value="" style="fontColor=#0066CC;verticalAlign=top;verticalLabelPosition=bottom;labelPosition=center;align=center;html=1;outlineConnect=0;fillColor=#CCCCCC;strokeColor=#6881B3;gradientColor=none;gradientDirection=north;strokeWidth=2;shape=mxgraph.networks.firewall;labelBackgroundColor=#FFFFFF;" vertex="1" parent="1">
          <mxGeometry x="379" y="189" width="102" height="107" as="geometry" />
        </mxCell>
        <mxCell id="ksOG_NAHe54KqmvVW3Z6-5" value="" style="html=1;outlineConnect=0;fillColor=#CCCCCC;strokeColor=#6881B3;gradientColor=none;gradientDirection=north;strokeWidth=2;shape=mxgraph.networks.comm_link_edge;html=1;rounded=0;endArrow=none;endFill=0;" edge="1" parent="1" target="ksOG_NAHe54KqmvVW3Z6-1">
          <mxGeometry width="100" height="100" relative="1" as="geometry">
            <mxPoint x="374" y="300" as="sourcePoint" />
            <mxPoint x="474" y="200" as="targetPoint" />
          </mxGeometry>
        </mxCell>
        <mxCell id="ksOG_NAHe54KqmvVW3Z6-6" value="" style="html=1;outlineConnect=0;fillColor=#CCCCCC;strokeColor=#6881B3;gradientColor=none;gradientDirection=north;strokeWidth=2;shape=mxgraph.networks.comm_link_edge;html=1;rounded=0;endArrow=none;endFill=0;entryX=0;entryY=0.5;entryDx=0;entryDy=0;entryPerimeter=0;" edge="1" parent="1" source="ksOG_NAHe54KqmvVW3Z6-2" target="ksOG_NAHe54KqmvVW3Z6-1">
          <mxGeometry width="100" height="100" relative="1" as="geometry">
            <mxPoint x="374" y="300" as="sourcePoint" />
            <mxPoint x="474" y="200" as="targetPoint" />
          </mxGeometry>
        </mxCell>
        <mxCell id="ksOG_NAHe54KqmvVW3Z6-7" value="" style="verticalLabelPosition=bottom;verticalAlign=top;html=1;shape=mxgraph.basic.rect;fillColor2=none;strokeWidth=1;size=20;indent=5;labelBackgroundColor=#FFFFFF;fillColor=none;" vertex="1" parent="1">
          <mxGeometry x="61" y="480" width="246" height="162" as="geometry" />
        </mxCell>
        <mxCell id="ksOG_NAHe54KqmvVW3Z6-8" value="" style="verticalLabelPosition=bottom;verticalAlign=top;html=1;shape=mxgraph.basic.rect;fillColor2=none;strokeWidth=1;size=20;indent=5;labelBackgroundColor=#FFFFFF;fillColor=none;" vertex="1" parent="1">
          <mxGeometry x="544" y="478" width="246" height="161" as="geometry" />
        </mxCell>
        <mxCell id="ksOG_NAHe54KqmvVW3Z6-14" value="&lt;b style=&quot;background-color: rgb(255 , 255 , 255)&quot;&gt;&lt;font style=&quot;font-size: 19px&quot;&gt;DMZ Server&lt;/font&gt;&lt;/b&gt;" style="text;html=1;strokeColor=none;fillColor=none;align=center;verticalAlign=middle;whiteSpace=wrap;rounded=0;labelBackgroundColor=#FFFFFF;" vertex="1" parent="1">
          <mxGeometry x="127" y="483" width="114" height="30" as="geometry" />
        </mxCell>
        <mxCell id="ksOG_NAHe54KqmvVW3Z6-15" value="MTSLCD" style="text;html=1;strokeColor=none;fillColor=none;align=center;verticalAlign=middle;whiteSpace=wrap;rounded=0;labelBackgroundColor=#FFFFFF;" vertex="1" parent="1">
          <mxGeometry x="642" y="64" width="60" height="30" as="geometry" />
        </mxCell>
        <mxCell id="ksOG_NAHe54KqmvVW3Z6-16" value="Internet" style="text;html=1;strokeColor=none;fillColor=none;align=center;verticalAlign=middle;whiteSpace=wrap;rounded=0;labelBackgroundColor=#FFFFFF;" vertex="1" parent="1">
          <mxGeometry x="129" y="61" width="60" height="30" as="geometry" />
        </mxCell>
        <mxCell id="ksOG_NAHe54KqmvVW3Z6-17" value="&lt;b&gt;&lt;font style=&quot;font-size: 20px ; background-color: rgb(255 , 255 , 255)&quot;&gt;LAN Server&lt;/font&gt;&lt;/b&gt;" style="text;html=1;strokeColor=none;fillColor=none;align=center;verticalAlign=middle;whiteSpace=wrap;rounded=0;labelBackgroundColor=#FFFFFF;" vertex="1" parent="1">
          <mxGeometry x="617" y="480" width="114" height="30" as="geometry" />
        </mxCell>
        <mxCell id="ksOG_NAHe54KqmvVW3Z6-18" value="" style="shape=mxgraph.cisco.servers.fileserver;sketch=0;html=1;pointerEvents=1;dashed=0;fillColor=#036897;strokeColor=#ffffff;strokeWidth=2;verticalLabelPosition=bottom;verticalAlign=top;align=center;outlineConnect=0;labelBackgroundColor=#FFFFFF;" vertex="1" parent="1">
          <mxGeometry x="81" y="534" width="43" height="62" as="geometry" />
        </mxCell>
        <mxCell id="ksOG_NAHe54KqmvVW3Z6-19" value="" style="shape=mxgraph.cisco.servers.fileserver;sketch=0;html=1;pointerEvents=1;dashed=0;fillColor=#036897;strokeColor=#ffffff;strokeWidth=2;verticalLabelPosition=bottom;verticalAlign=top;align=center;outlineConnect=0;labelBackgroundColor=#FFFFFF;" vertex="1" parent="1">
          <mxGeometry x="157" y="533" width="43" height="62" as="geometry" />
        </mxCell>
        <mxCell id="ksOG_NAHe54KqmvVW3Z6-20" value="" style="shape=mxgraph.cisco.servers.fileserver;sketch=0;html=1;pointerEvents=1;dashed=0;fillColor=#036897;strokeColor=#ffffff;strokeWidth=2;verticalLabelPosition=bottom;verticalAlign=top;align=center;outlineConnect=0;labelBackgroundColor=#FFFFFF;" vertex="1" parent="1">
          <mxGeometry x="239" y="534" width="43" height="62" as="geometry" />
        </mxCell>
        <mxCell id="ksOG_NAHe54KqmvVW3Z6-21" value="" style="fontColor=#0066CC;verticalAlign=top;verticalLabelPosition=bottom;labelPosition=center;align=center;html=1;outlineConnect=0;fillColor=#CCCCCC;strokeColor=#6881B3;gradientColor=none;gradientDirection=north;strokeWidth=2;shape=mxgraph.networks.pc;labelBackgroundColor=#FFFFFF;" vertex="1" parent="1">
          <mxGeometry x="560" y="534" width="48" height="53" as="geometry" />
        </mxCell>
        <mxCell id="ksOG_NAHe54KqmvVW3Z6-22" value="" style="fontColor=#0066CC;verticalAlign=top;verticalLabelPosition=bottom;labelPosition=center;align=center;html=1;outlineConnect=0;fillColor=#CCCCCC;strokeColor=#6881B3;gradientColor=none;gradientDirection=north;strokeWidth=2;shape=mxgraph.networks.security_camera;labelBackgroundColor=#FFFFFF;" vertex="1" parent="1">
          <mxGeometry x="625" y="533" width="30" height="52.5" as="geometry" />
        </mxCell>
        <mxCell id="ksOG_NAHe54KqmvVW3Z6-23" value="" style="fontColor=#0066CC;verticalAlign=top;verticalLabelPosition=bottom;labelPosition=center;align=center;html=1;outlineConnect=0;fillColor=#CCCCCC;strokeColor=#6881B3;gradientColor=none;gradientDirection=north;strokeWidth=2;shape=mxgraph.networks.laptop;labelBackgroundColor=#FFFFFF;" vertex="1" parent="1">
          <mxGeometry x="669" y="534" width="56" height="55" as="geometry" />
        </mxCell>
        <mxCell id="ksOG_NAHe54KqmvVW3Z6-24" value="" style="fontColor=#0066CC;verticalAlign=top;verticalLabelPosition=bottom;labelPosition=center;align=center;html=1;outlineConnect=0;fillColor=#CCCCCC;strokeColor=#6881B3;gradientColor=none;gradientDirection=north;strokeWidth=2;shape=mxgraph.networks.mobile;labelBackgroundColor=#FFFFFF;" vertex="1" parent="1">
          <mxGeometry x="748" y="537" width="32" height="52" as="geometry" />
        </mxCell>
        <mxCell id="ksOG_NAHe54KqmvVW3Z6-25" value="FTP Server" style="text;html=1;strokeColor=none;fillColor=none;align=center;verticalAlign=middle;whiteSpace=wrap;rounded=0;labelBackgroundColor=#FFFFFF;" vertex="1" parent="1">
          <mxGeometry x="224" y="596" width="60" height="30" as="geometry" />
        </mxCell>
        <mxCell id="ksOG_NAHe54KqmvVW3Z6-26" value="Vitual Server" style="text;html=1;strokeColor=none;fillColor=none;align=center;verticalAlign=middle;whiteSpace=wrap;rounded=0;labelBackgroundColor=#FFFFFF;" vertex="1" parent="1">
          <mxGeometry x="144" y="599" width="60" height="30" as="geometry" />
        </mxCell>
        <mxCell id="ksOG_NAHe54KqmvVW3Z6-27" value="VIC Server" style="text;html=1;strokeColor=none;fillColor=none;align=center;verticalAlign=middle;whiteSpace=wrap;rounded=0;labelBackgroundColor=#FFFFFF;" vertex="1" parent="1">
          <mxGeometry x="67" y="599" width="60" height="30" as="geometry" />
        </mxCell>
        <mxCell id="ksOG_NAHe54KqmvVW3Z6-28" value="PC" style="text;html=1;strokeColor=none;fillColor=none;align=center;verticalAlign=middle;whiteSpace=wrap;rounded=0;labelBackgroundColor=#FFFFFF;" vertex="1" parent="1">
          <mxGeometry x="560" y="596" width="42" height="30" as="geometry" />
        </mxCell>
        <mxCell id="ksOG_NAHe54KqmvVW3Z6-29" value="Camera" style="text;html=1;strokeColor=none;fillColor=none;align=center;verticalAlign=middle;whiteSpace=wrap;rounded=0;labelBackgroundColor=#FFFFFF;" vertex="1" parent="1">
          <mxGeometry x="613" y="595" width="42" height="30" as="geometry" />
        </mxCell>
        <mxCell id="ksOG_NAHe54KqmvVW3Z6-31" value="Laptop" style="text;html=1;strokeColor=none;fillColor=none;align=center;verticalAlign=middle;whiteSpace=wrap;rounded=0;labelBackgroundColor=#FFFFFF;" vertex="1" parent="1">
          <mxGeometry x="676" y="595" width="42" height="30" as="geometry" />
        </mxCell>
        <mxCell id="ksOG_NAHe54KqmvVW3Z6-32" value="Mobile" style="text;html=1;strokeColor=none;fillColor=none;align=center;verticalAlign=middle;whiteSpace=wrap;rounded=0;labelBackgroundColor=#FFFFFF;" vertex="1" parent="1">
          <mxGeometry x="743" y="595" width="42" height="30" as="geometry" />
        </mxCell>
        <mxCell id="ksOG_NAHe54KqmvVW3Z6-34" style="edgeStyle=none;rounded=0;orthogonalLoop=1;jettySize=auto;html=1;entryX=0.317;entryY=0;entryDx=0;entryDy=0;entryPerimeter=0;fontSize=19;endArrow=none;endFill=0;" edge="1" parent="1" source="ksOG_NAHe54KqmvVW3Z6-33" target="ksOG_NAHe54KqmvVW3Z6-8">
          <mxGeometry relative="1" as="geometry" />
        </mxCell>
        <mxCell id="ksOG_NAHe54KqmvVW3Z6-35" style="edgeStyle=none;rounded=0;orthogonalLoop=1;jettySize=auto;html=1;entryX=0.61;entryY=-0.012;entryDx=0;entryDy=0;entryPerimeter=0;fontSize=19;endArrow=none;endFill=0;" edge="1" parent="1" source="ksOG_NAHe54KqmvVW3Z6-33" target="ksOG_NAHe54KqmvVW3Z6-7">
          <mxGeometry relative="1" as="geometry" />
        </mxCell>
        <mxCell id="ksOG_NAHe54KqmvVW3Z6-36" style="edgeStyle=none;rounded=0;orthogonalLoop=1;jettySize=auto;html=1;entryX=0.5;entryY=1;entryDx=0;entryDy=0;entryPerimeter=0;fontSize=19;endArrow=none;endFill=0;" edge="1" parent="1" source="ksOG_NAHe54KqmvVW3Z6-33" target="ksOG_NAHe54KqmvVW3Z6-1">
          <mxGeometry relative="1" as="geometry" />
        </mxCell>
        <mxCell id="ksOG_NAHe54KqmvVW3Z6-33" value="" style="shape=mxgraph.cisco.switches.workgroup_switch;sketch=0;html=1;pointerEvents=1;dashed=0;fillColor=#036897;strokeColor=#ffffff;strokeWidth=2;verticalLabelPosition=bottom;verticalAlign=top;align=center;outlineConnect=0;labelBackgroundColor=#FFFFFF;fontSize=19;" vertex="1" parent="1">
          <mxGeometry x="380" y="371" width="101" height="50" as="geometry" />
        </mxCell>
        <mxCell id="ksOG_NAHe54KqmvVW3Z6-37" value="Firewall" style="text;html=1;strokeColor=none;fillColor=none;align=center;verticalAlign=middle;whiteSpace=wrap;rounded=0;labelBackgroundColor=#FFFFFF;" vertex="1" parent="1">
          <mxGeometry x="400" y="157" width="60" height="30" as="geometry" />
        </mxCell>
        <mxCell id="ksOG_NAHe54KqmvVW3Z6-38" value="Switch" style="text;html=1;strokeColor=none;fillColor=none;align=center;verticalAlign=middle;whiteSpace=wrap;rounded=0;labelBackgroundColor=#FFFFFF;" vertex="1" parent="1">
          <mxGeometry x="393" y="425" width="60" height="30" as="geometry" />
        </mxCell>
      </root>
    </mxGraphModel>
  </diagram>
</mxfile>
